<svg xmlns="http://www.w3.org/2000/svg" viewBox="0 0 1200 320" preserveAspectRatio="none" xmlns:c2pa="http://c2pa.org/manifest"><metadata><c2pa:manifest>AAAWgmp1bWIAAAAeanVtZGMycGEAEQAQgAAAqgA4m3EDYzJwYQAAABZcanVtYgAAAEdqdW1kYzJtYQARABCAAACqADibcQN1cm46YzJwYToxYTNjMmM4MS1kYmY2LTRjNmMtYjk1MS0zMGZlMWJhNTljYTEAAAADl2p1bWIAAAApanVtZGMyYXMAEQAQgAAAqgA4m3EDYzJwYS5hc3NlcnRpb25zAAAAALxqdW1iAAAARGp1bWRjYm9yABEAEIAAAKoAOJtxE2MycGEuaW5ncmVkaWVudC52MwAAAAAYYzJzaHZqYTFwOWzZ3zJ85TgqqgEAAABwY2JvcqNpZGM6Zm9ybWF0bWltYWdlL3N2Zyt4bWxqaW5zdGFuY2VJRHgseG1wOmlpZDo2OTNmN2VkZi0yYTEyLTQ4MDItYTZiYS03MGU1YTM0YjgwMDlscmVsYXRpb25zaGlwaHBhcmVudE9mAAAB4mp1bWIAAABBanVtZGNib3IAEQAQgAAAqgA4m3ETYzJwYS5hY3Rpb25zLnYyAAAAABhjMnNoxa5wLuddp9vOhGG06m9sdwAAAZljYm9yomdhY3Rpb25zgqJmYWN0aW9ua2MycGEub3BlbmVkanBhcmFtZXRlcnOha2luZ3JlZGllbnRzgaJjdXJseC1zZWxmI2p1bWJmPWMycGEuYXNzZXJ0aW9ucy9jMnBhLmluZ3JlZGllbnQudjNkaGFzaFggaHG1zOsronE2fqij8a3a9A3/U9v6lNv1gLyifmsziqikZmFjdGlvbngdY29tLmFudGhyb3BpYy5jbGF1ZGUucHJvdmlkZWRqcGFyYW1ldGVyc6F4H2NvbS5hbnRocm9waWMub3JpZ2luLWNvbmZpZGVuY2VndW5rbm93bmtkZXNjcmlwdGlvbnhmQ2xhdWRlIHByb3ZpZGVkIHRoaXMgZmlsZSBhdCB0aGUgcmVxdWVzdCBvZiBhIHVzZXIgYW5kIG1heSBoYXZlIGNyZWF0ZWQgb3IgbW9kaWZpZWQgdGhlIGZpbGUgY29udGVudHMubXNvZnR3YXJlQWdlbnShZG5hbWVmQ2xhdWRlcmFsbEFjdGlvbnNJbmNsdWRlZPUAAADIanVtYgAAAEBqdW1kY2JvcgARABCAAACqADibcRNjMnBhLmhhc2guZGF0YQAAAAAYYzJzaHcstAABnYijfxwLFFkNaUwAAACAY2JvcqVjYWxnZnNoYTI1NmNwYWRNAAAAAAAAAAAAAAAAAGRoYXNoWCCTeMfBYAi3OVE/uUMcyVnKpO8OY8N6JEUuNl8orGG92WRuYW1lbmp1bWJmIG1hbmlmZXN0amV4Y2x1c2lvbnOBomVzdGFydBiZZmxlbmd0aBkeBAAAAj5qdW1iAAAAJ2p1bWRjMmNsABEAEIAAAKoAOJtxA2MycGEuY2xhaW0udjIAAAACD2Nib3KlY2FsZ2ZzaGEyNTZpc2lnbmF0dXJleE1zZWxmI2p1bWJmPS9jMnBhL3VybjpjMnBhOjFhM2MyYzgxLWRiZjYtNGM2Yy1iOTUxLTMwZmUxYmE1OWNhMS9jMnBhLnNpZ25hdHVyZWppbnN0YW5jZUlEeCx4bXA6aWlkOjhjYWJmZGU5LWZiMDQtNDI0Ny05ZDM3LTEyYjc3NzUxZjUwNnJjcmVhdGVkX2Fzc2VydGlvbnODomN1cmx4LXNlbGYjanVtYmY9YzJwYS5hc3NlcnRpb25zL2MycGEuaW5ncmVkaWVudC52M2RoYXNoWCBocbXM6yuicTZ+qKPxrdr0Df9T2/qU2/WAvKJ+azOKqKJjdXJseCpzZWxmI2p1bWJmPWMycGEuYXNzZXJ0aW9ucy9jMnBhLmFjdGlvbnMudjJkaGFzaFggHg41a6VlKTvJAR3LSaxUtP0ZSyAFpYnBoS/hf3tBmTCiY3VybHgpc2VsZiNqdW1iZj1jMnBhLmFzc2VydGlvbnMvYzJwYS5oYXNoLmRhdGFkaGFzaFgg90hUiNWJq/sNdNKLT7du/ltj2SvDJoqsipU2hl9KtWx0Y2xhaW1fZ2VuZXJhdG9yX2luZm+jZG5hbWVvQW50aHJvcGljIEZpbGVzZ3ZlcnNpb25lMS4wLjBrc3BlY1ZlcnNpb25lMi40LjAAABA4anVtYgAAAChqdW1kYzJjcwARABCAAACqADibcQNjMnBhLnNpZ25hdHVyZQAAABAIY2JvctKEWQISogEmGCFZAgowggIGMIIBjaADAgECAhRA5aAK7sI50L64g/oGQgU9Z1UTADAKBggqhkjOPQQDAzBJMRcwFQYDVQQKEw5BbnRocm9waWMsIFBCQzEuMCwGA1UEAxMlQW50aHJvcGljIENvbnRlbnQgQ3JlZGVudGlhbHMgUm9vdCBDQTAeFw0yNjA4MDcxODQzNTZaFw0yODA4MDYxOTQzNTZaMEQxFzAVBgNVBAoTDkFudGhyb3BpYywgUEJDMSkwJwYDVQQDEyBBbnRocm9waWMgQ2xhdWRlIENvbnRlbnQgU2lnbmluZzBZMBMGByqGSM49AgEGCCqGSM49AwEHA0IABJh6CmvLUBgFFNU0vUKlOVtE6djd17L5SuwX0LemFisBM3dkd/3cyjxFA3Qo5S46fX0/ihY0VZ7mfb9KF703t5OjWDBWMA4GA1UdDwEB/wQEAwIHgDAVBgNVHSUEDjAMBgorBgEEAYPoXgIBMAwGA1UdEwEB/wQCMAAwHwYDVR0jBBgwFoAUzlHiBIFOZFsj+OPEz5o+nMHXXMIwCgYIKoZIzj0EAwMDZwAwZAIwMXMdFJ4BetLLVY7ORuE9noqbbAZOZn/aArXyTwFAZfKrPzxF2vPoJNf1+UCdg1XGAjBwX1zd9WGqYkqmL5SFqw1QySjr1zJfpJM9+1rdDwSPLMOPOjKuiXjoU/pUUeG9RwmhY3BhZFkNngAAAAAAAAAAAAAAAAAAAAAAAAAAAAAAAAAAAAAAAAAAAAAAAAAAAAAAAAAAAAAAAAAAAAAAAAAAAAAAAAAAAAAAAAAAAAAAAAAAAAAAAAAAAAAAAAAAAAAAAAAAAAAAAAAAAAAAAAAAAAAAAAAAAAAAAAAAAAAAAAAAAAAAAAAAAAAAAAAAAAAAAAAAAAAAAAAAAAAAAAAAAAAAAAAAAAAAAAAAAAAAAAAAAAAAAAAAAAAAAAAAAAAAAAAAAAAAAAAAAAAAAAAAAAAAAAAAAAAAAAAAAAAAAAAAAAAAAAAAAAAAAAAAAAAAAAAAAAAAAAAAAAAAAAAAAAAAAAAAAAAAAAAAAAAAAAAAAAAAAAAAAAAAAAAAAAAAAAAAAAAAAAAAAAAAAAAAAAAAAAAAAAAAAAAAAAAAAAAAAAAAAAAAAAAAAAAAAAAAAAAAAAAAAAAAAAAAAAAAAAAAAAAAAAAAAAAAAAAAAAAAAAAAAAAAAAAAAAAAAAAAAAAAAAAAAAAAAAAAAAAAAAAAAAAAAAAAAAAAAAAAAAAAAAAAAAAAAAAAAAAAAAAAAAAAAAAAAAAAAAAAAAAAAAAAAAAAAAAAAAAAAAAAAAAAAAAAAAAAAAAAAAAAAAAAAAAAAAAAAAAAAAAAAAAAAAAAAAAAAAAAAAAAAAAAAAAAAAAAAAAAAAAAAAAAAAAAAAAAAAAAAAAAAAAAAAAAAAAAAAAAAAAAAAAAAAAAAAAAAAAAAAAAAAAAAAAAAAAAAAAAAAAAAAAAAAAAAAAAAAAAAAAAAAAAAAAAAAAAAAAAAAAAAAAAAAAAAAAAAAAAAAAAAAAAAAAAAAAAAAAAAAAAAAAAAAAAAAAAAAAAAAAAAAAAAAAAAAAAAAAAAAAAAAAAAAAAAAAAAAAAAAAAAAAAAAAAAAAAAAAAAAAAAAAAAAAAAAAAAAAAAAAAAAAAAAAAAAAAAAAAAAAAAAAAAAAAAAAAAAAAAAAAAAAAAAAAAAAAAAAAAAAAAAAAAAAAAAAAAAAAAAAAAAAAAAAAAAAAAAAAAAAAAAAAAAAAAAAAAAAAAAAAAAAAAAAAAAAAAAAAAAAAAAAAAAAAAAAAAAAAAAAAAAAAAAAAAAAAAAAAAAAAAAAAAAAAAAAAAAAAAAAAAAAAAAAAAAAAAAAAAAAAAAAAAAAAAAAAAAAAAAAAAAAAAAAAAAAAAAAAAAAAAAAAAAAAAAAAAAAAAAAAAAAAAAAAAAAAAAAAAAAAAAAAAAAAAAAAAAAAAAAAAAAAAAAAAAAAAAAAAAAAAAAAAAAAAAAAAAAAAAAAAAAAAAAAAAAAAAAAAAAAAAAAAAAAAAAAAAAAAAAAAAAAAAAAAAAAAAAAAAAAAAAAAAAAAAAAAAAAAAAAAAAAAAAAAAAAAAAAAAAAAAAAAAAAAAAAAAAAAAAAAAAAAAAAAAAAAAAAAAAAAAAAAAAAAAAAAAAAAAAAAAAAAAAAAAAAAAAAAAAAAAAAAAAAAAAAAAAAAAAAAAAAAAAAAAAAAAAAAAAAAAAAAAAAAAAAAAAAAAAAAAAAAAAAAAAAAAAAAAAAAAAAAAAAAAAAAAAAAAAAAAAAAAAAAAAAAAAAAAAAAAAAAAAAAAAAAAAAAAAAAAAAAAAAAAAAAAAAAAAAAAAAAAAAAAAAAAAAAAAAAAAAAAAAAAAAAAAAAAAAAAAAAAAAAAAAAAAAAAAAAAAAAAAAAAAAAAAAAAAAAAAAAAAAAAAAAAAAAAAAAAAAAAAAAAAAAAAAAAAAAAAAAAAAAAAAAAAAAAAAAAAAAAAAAAAAAAAAAAAAAAAAAAAAAAAAAAAAAAAAAAAAAAAAAAAAAAAAAAAAAAAAAAAAAAAAAAAAAAAAAAAAAAAAAAAAAAAAAAAAAAAAAAAAAAAAAAAAAAAAAAAAAAAAAAAAAAAAAAAAAAAAAAAAAAAAAAAAAAAAAAAAAAAAAAAAAAAAAAAAAAAAAAAAAAAAAAAAAAAAAAAAAAAAAAAAAAAAAAAAAAAAAAAAAAAAAAAAAAAAAAAAAAAAAAAAAAAAAAAAAAAAAAAAAAAAAAAAAAAAAAAAAAAAAAAAAAAAAAAAAAAAAAAAAAAAAAAAAAAAAAAAAAAAAAAAAAAAAAAAAAAAAAAAAAAAAAAAAAAAAAAAAAAAAAAAAAAAAAAAAAAAAAAAAAAAAAAAAAAAAAAAAAAAAAAAAAAAAAAAAAAAAAAAAAAAAAAAAAAAAAAAAAAAAAAAAAAAAAAAAAAAAAAAAAAAAAAAAAAAAAAAAAAAAAAAAAAAAAAAAAAAAAAAAAAAAAAAAAAAAAAAAAAAAAAAAAAAAAAAAAAAAAAAAAAAAAAAAAAAAAAAAAAAAAAAAAAAAAAAAAAAAAAAAAAAAAAAAAAAAAAAAAAAAAAAAAAAAAAAAAAAAAAAAAAAAAAAAAAAAAAAAAAAAAAAAAAAAAAAAAAAAAAAAAAAAAAAAAAAAAAAAAAAAAAAAAAAAAAAAAAAAAAAAAAAAAAAAAAAAAAAAAAAAAAAAAAAAAAAAAAAAAAAAAAAAAAAAAAAAAAAAAAAAAAAAAAAAAAAAAAAAAAAAAAAAAAAAAAAAAAAAAAAAAAAAAAAAAAAAAAAAAAAAAAAAAAAAAAAAAAAAAAAAAAAAAAAAAAAAAAAAAAAAAAAAAAAAAAAAAAAAAAAAAAAAAAAAAAAAAAAAAAAAAAAAAAAAAAAAAAAAAAAAAAAAAAAAAAAAAAAAAAAAAAAAAAAAAAAAAAAAAAAAAAAAAAAAAAAAAAAAAAAAAAAAAAAAAAAAAAAAAAAAAAAAAAAAAAAAAAAAAAAAAAAAAAAAAAAAAAAAAAAAAAAAAAAAAAAAAAAAAAAAAAAAAAAAAAAAAAAAAAAAAAAAAAAAAAAAAAAAAAAAAAAAAAAAAAAAAAAAAAAAAAAAAAAAAAAAAAAAAAAAAAAAAAAAAAAAAAAAAAAAAAAAAAAAAAAAAAAAAAAAAAAAAAAAAAAAAAAAAAAAAAAAAAAAAAAAAAAAAAAAAAAAAAAAAAAAAAAAAAAAAAAAAAAAAAAAAAAAAAAAAAAAAAAAAAAAAAAAAAAAAAAAAAAAAAAAAAAAAAAAAAAAAAAAAAAAAAAAAAAAAAAAAAAAAAAAAAAAAAAAAAAAAAAAAAAAAAAAAAAAAAAAAAAAAAAAAAAAAAAAAAAAAAAAAAAAAAAAAAAAAAAAAAAAAAAAAAAAAAAAAAAAAAAAAAAAAAAAAAAAAAAAAAAAAAAAAAAAAAAAAAAAAAAAAAAAAAAAAAAAAAAAAAAAAAAAAAAAAAAAAAAAAAAAAAAAAAAAAAAAAAAAAAAAAAAAAAAAAAAAAAAAAAAAAAAAAAAAAAAAAAAAAAAAAAAAAAAAAAAAAAAAAAAAAAAAAAAAAAAAAAAAAAAAAAAAAAAAAAAAAAAAAAAAAAAAAAAAAAAAAAAAAAAAAAAAAAAAAAAAAAAAAAAAAAAAAAAAAAAAAAAAAAAAAAAAAAAAAAAAAAAAAAAAAAAAAAAAAAAAAAAAAAAAAAAAAAAAAAAAAAAAAAAAAAAAAAAAAAAAAAAAAAAAAAAAAAAAAAAAAAAAAAAAAAAAAAAAAAAAAAAAAAAAAAAAAAAAAAAAAAAAAAAAAAAAAAAAAAAAAAAAAAAAAAAAAAAAAAAAAAAAAAAAAAAAAAAAAAAAAAAAAAAAAAAAAAAAAAAAAAAAAAAAAAAAAAAAAAAAAAAAAAAAAAAAAAAAAAAAAAAAAAAAAAAAAAAAAAAAAAAAAAAAAAAAAAAAAAAAAAAAAAAAAAAAAAAAAAAAAAAAAAAAAAAAAAAAAAAAAAAAAAAAAAAAAAAAAAAAAAAAAAAAAAAAAAAAAAAAAAAAAAAAAAAAAAAAAAAAAAAAAAAAAAAAAAAAAAAAAAAAAAAAAAAAAAAAAAAAAAAAAAAAAAAAAAAAAAAAAAAAAAAAAAAAAAAAAAAAAAAAAAAAAAAAAAAAAAAAAAAAAAAAAAAAAAAAAAAAAAAAAAAAAAAAAAAAAAAAAAAAAAAAAAAAAAAAAAAAAAAAAAAAAAAAAAAAAAAAAAAAAAAAAAAAAAAAAAAAAAAAAAAAAAAAAAAAAAAAAAAAAAAAAAAAAAAAAAAAAAAAAAAAAAAAAAAAAAAAAAAAAAAAAAAAAAAAAAAAAAAAAAAAAAAAAAAAAAAAAAAAAAAAAAAAAAAAAAAAAAAAAAAAAAAAAAAAAAAAAAAAAAAAAAAAAAAAAAAAAAAAAAAAAAAAAAAAAAAAAAAAAAAAAAAAAAAAAAAAAAAAAAAAAAAAAAAAAAAAAAAAAAAAAAAAAAAAAAAAAAAAAAAAAAAAAAAAAAAAAAAAAAAAAAAAAAAAAAAAAAAAAAAAAAAAAAAAAAAAAAAAAAAAAAAAAAAAAAAAAAAAAAAAAAAAAAAAAAAAAAAAAAAAAAAAAAAAAAAAAAAAAAAAAAAAAAAAAAAAAAAAAAAAAAAAAAAAAAAAAAAAAAAAAAAAAAAAAAAAAAAAAAAAAAAAAAAAAAAAAAAAAAAAAAAAAAAAAAAAAAAAAAAAAAAAAAAAAAAAAAAAAAAAAAAAAAAAAAAAAAAAAAAAAAAAAAAAAAAAAAAAAAAAAAAAAAAAAAAAAAAAAAAAAAAAAAAAAAAAAAAAAAAAAAAAPZYQM+rbwg00X1fKglURvtkOiW2Y/sob+CUbWYN5L2rIHkMOzcbchxgfqsdgn7nOtde/XtT0nx2oxnU0U7ruj3pnY0=</c2pa:manifest></metadata>
  <!-- Pincelada errática: cerdas tremidas e de grossuras diferentes, falhas de pincel seco,
       pontas desfiadas e respingos. Para mudar a cor, troque os valores #e8132b abaixo. -->
  <defs>
    <filter id="aspero" x="-5%" y="-15%" width="110%" height="130%">
      <feTurbulence type="fractalNoise" baseFrequency="0.012 0.09" numOctaves="4" seed="8"/>
      <feDisplacementMap in="SourceGraphic" scale="18"/>
    </filter>
  </defs>
  <g fill="none" stroke="#e8132b" stroke-linecap="round" stroke-linejoin="round" filter="url(#aspero)">
    <path d="M122 32 L206 26 L289 22 L373 27 L456 31 L540 37 L624 48 L707 55 L791 67 L874 70" stroke-width="3.9" opacity="0.94" stroke-dasharray="131 60 213 11 310 49 84 36 201 31 61 23"/>
    <path d="M180 32 L246 24 L312 13 L378 9 L444 18 L510 28 L576 41 L642 50 L708 63 L774 63" stroke-width="4.5" opacity="0.84" stroke-dasharray="127 36 254 11 257 46 84 15 198 45 42 30"/>
    <path d="M183 35 L256 26 L329 24 L402 22 L475 28 L548 41 L621 46 L694 60 L767 69 L840 77" stroke-width="5.0" opacity="0.88" stroke-dasharray="113 24 129 17 249 15 146 41 203 55 295 57"/>
    <path d="M115 34 L196 30 L277 23 L357 22 L438 24 L519 35 L600 43 L681 57 L761 65 L842 65" stroke-width="2.5" opacity="0.87"/>
    <path d="M234 40 L305 35 L375 33 L445 35 L516 38 L586 45 L657 60 L727 74 L798 81 L868 90" stroke-width="2.7" opacity="0.86"/>
    <path d="M97 48 L186 36 L275 30 L364 32 L453 40 L542 49 L631 61 L721 67 L810 73 L899 74" stroke-width="2.4" opacity="0.87" stroke-dasharray="138 48 127 56 173 48 253 53 158 32 216 48"/>
    <path d="M87 49 L192 37 L297 36 L402 35 L507 36 L612 46 L717 59 L822 68 L927 76 L1032 82" stroke-width="5.4" opacity="0.95"/>
    <path d="M61 47 L141 40 L221 40 L301 41 L381 43 L461 53 L541 69 L622 82 L702 89 L782 89" stroke-width="4.7" opacity="0.83" stroke-dasharray="268 60 239 32 131 29 168 19 180 35 235 17"/>
    <path d="M252 47 L304 34 L355 26 L407 25 L458 23 L510 29 L561 38 L613 46 L664 57 L716 62" stroke-width="5.1" opacity="0.93" stroke-dasharray="251 22 124 14 64 31 58 9 215 38 157 41"/>
    <path d="M110 48 L193 36 L275 29 L358 27 L441 32 L524 36 L607 46 L690 58 L773 68 L855 76" stroke-width="2.9" opacity="0.94"/>
    <path d="M60 58 L153 51 L247 50 L341 50 L435 53 L529 55 L623 63 L717 74 L811 78 L905 78" stroke-width="3.1" opacity="0.90"/>
    <path d="M94 57 L187 52 L281 52 L374 47 L467 54 L561 66 L654 80 L747 93 L841 99 L934 101" stroke-width="2.8" opacity="0.88" stroke-dasharray="121 14 45 24 191 24 103 37 258 57 77 8"/>
    <path d="M144 54 L237 50 L330 46 L422 46 L515 53 L608 55 L701 69 L794 76 L886 82 L979 87" stroke-width="7.3" opacity="0.85" stroke-dasharray="67 19 163 47 173 16 88 33 42 42 54 59"/>
    <path d="M171 63 L250 54 L329 43 L409 44 L488 48 L567 61 L646 77 L726 81 L805 90 L884 93" stroke-width="3.3" opacity="0.98" stroke-dasharray="297 16 159 52 288 19 91 33 143 57 128 14"/>
    <path d="M180 67 L265 64 L351 64 L436 58 L522 59 L607 64 L693 76 L779 84 L864 93 L950 94" stroke-width="4.4" opacity="0.91" stroke-dasharray="89 56 55 8 263 9 201 18 65 48 189 17"/>
    <path d="M163 61 L251 51 L339 42 L427 40 L515 41 L603 48 L690 63 L778 67 L866 71 L954 77" stroke-width="7.2" opacity="0.88" stroke-dasharray="202 30 165 40 118 55 77 7 54 17 148 20"/>
    <path d="M81 63 L172 59 L262 57 L353 57 L444 62 L534 68 L625 78 L715 89 L806 95 L897 98" stroke-width="3.4" opacity="0.91" stroke-dasharray="57 20 176 26 92 23 197 45 164 19 266 48"/>
    <path d="M58 68 L165 63 L272 63 L380 65 L487 68 L594 81 L702 88 L809 104 L916 113 L1024 118" stroke-width="7.6" opacity="0.82" stroke-dasharray="146 10 183 35 290 27 83 50 50 9 82 46"/>
    <path d="M80 70 L203 59 L327 56 L451 51 L574 61 L698 72 L822 86 L945 92 L1069 96 L1193 103" stroke-width="4.4" opacity="0.84" stroke-dasharray="198 59 134 54 254 30 89 10 177 39 195 22"/>
    <path d="M152 69 L244 61 L336 52 L428 49 L520 53 L611 65 L703 79 L795 88 L887 100 L979 101" stroke-width="4.3" opacity="0.84" stroke-dasharray="137 27 301 14 297 20 221 44 304 10 156 41"/>
    <path d="M66 72 L158 63 L251 57 L343 52 L436 50 L528 62 L621 67 L713 73 L806 78 L898 78" stroke-width="4.3" opacity="0.86"/>
    <path d="M92 79 L187 70 L281 71 L376 71 L470 76 L565 80 L659 85 L754 97 L848 108 L943 113" stroke-width="6.8" opacity="0.85" stroke-dasharray="307 44 257 51 283 16 217 41 130 52 305 60"/>
    <path d="M98 76 L202 66 L305 63 L409 60 L512 63 L616 71 L719 83 L823 96 L926 99 L1030 104" stroke-width="3.1" opacity="0.98" stroke-dasharray="120 8 129 46 87 36 240 33 318 40 234 29"/>
    <path d="M126 79 L232 68 L338 58 L444 52 L550 55 L657 64 L763 74 L869 85 L975 99 L1082 109" stroke-width="4.6" opacity="0.98" stroke-dasharray="106 24 53 41 300 40 174 15 166 32 308 41"/>
    <path d="M53 85 L179 72 L305 72 L430 68 L556 72 L682 74 L808 84 L934 97 L1059 110 L1185 115" stroke-width="3.8" opacity="0.93"/>
    <path d="M57 88 L183 79 L309 76 L435 70 L561 77 L687 86 L813 91 L939 102 L1065 106 L1191 106" stroke-width="8.2" opacity="0.96"/>
    <path d="M72 92 L172 85 L272 84 L371 89 L471 93 L570 96 L670 107 L770 119 L869 123 L969 132" stroke-width="7.9" opacity="0.92"/>
    <path d="M111 87 L210 81 L309 79 L407 76 L506 81 L604 89 L703 99 L801 112 L900 114 L999 115" stroke-width="4.2" opacity="0.93"/>
    <path d="M79 90 L185 79 L291 78 L397 72 L504 76 L610 83 L716 96 L822 105 L928 111 L1034 117" stroke-width="5.2" opacity="0.83"/>
    <path d="M78 100 L178 90 L277 84 L377 83 L476 84 L576 98 L675 110 L775 114 L874 128 L974 135" stroke-width="8.2" opacity="0.88"/>
    <path d="M107 97 L227 92 L346 84 L466 82 L585 80 L705 84 L824 94 L943 105 L1063 114 L1182 120" stroke-width="5.2" opacity="0.95" stroke-dasharray="113 36 231 50 109 36 267 35 133 35 305 37"/>
    <path d="M67 103 L190 91 L313 84 L437 78 L560 81 L683 94 L807 108 L930 120 L1053 124 L1177 131" stroke-width="9.2" opacity="0.91"/>
    <path d="M113 99 L215 95 L316 84 L417 86 L519 85 L620 87 L722 93 L823 99 L925 112 L1026 122" stroke-width="4.6" opacity="0.95"/>
    <path d="M45 107 L154 94 L262 90 L370 84 L479 93 L587 105 L696 118 L804 127 L912 138 L1021 146" stroke-width="8.8" opacity="0.87"/>
    <path d="M66 104 L172 97 L277 91 L383 96 L488 94 L594 101 L699 116 L805 124 L910 137 L1016 144" stroke-width="4.5" opacity="0.87"/>
    <path d="M85 105 L177 101 L269 98 L361 102 L452 112 L544 114 L636 126 L728 130 L820 133 L912 134" stroke-width="5.7" opacity="0.97"/>
    <path d="M68 113 L177 110 L287 103 L396 101 L506 105 L615 116 L725 122 L834 134 L944 145 L1053 151" stroke-width="7.8" opacity="0.83"/>
    <path d="M39 119 L149 105 L259 98 L369 103 L479 111 L590 113 L700 123 L810 127 L920 136 L1030 137" stroke-width="6.8" opacity="0.87"/>
    <path d="M83 115 L182 111 L282 103 L381 108 L480 116 L579 121 L678 125 L778 132 L877 138 L976 142" stroke-width="8.5" opacity="0.82"/>
    <path d="M16 115 L147 102 L277 92 L408 86 L539 95 L669 99 L800 114 L930 122 L1061 128 L1192 132" stroke-width="7.7" opacity="0.89"/>
    <path d="M49 121 L167 115 L285 112 L404 106 L522 111 L640 122 L758 128 L876 137 L995 142 L1113 147" stroke-width="8.8" opacity="0.82" stroke-dasharray="101 56 133 18 106 16 258 59 79 43 175 11"/>
    <path d="M63 124 L180 116 L297 108 L414 109 L531 110 L648 117 L766 127 L883 140 L1000 147 L1117 150" stroke-width="10.5" opacity="0.90"/>
    <path d="M54 129 L179 121 L305 117 L430 116 L556 122 L681 133 L807 140 L932 146 L1057 152 L1183 161" stroke-width="4.0" opacity="0.92"/>
    <path d="M60 126 L169 114 L278 108 L387 104 L496 110 L605 115 L714 126 L823 137 L932 148 L1041 152" stroke-width="7.8" opacity="0.90"/>
    <path d="M47 123 L173 113 L300 112 L426 110 L553 110 L680 118 L806 128 L933 133 L1059 144 L1186 153" stroke-width="8.1" opacity="0.91"/>
    <path d="M67 131 L173 128 L280 127 L387 131 L493 138 L600 151 L707 162 L813 171 L920 183 L1027 189" stroke-width="5.5" opacity="0.86"/>
    <path d="M18 130 L129 118 L240 113 L351 108 L462 108 L573 120 L684 129 L795 135 L906 147 L1017 146" stroke-width="5.3" opacity="0.82"/>
    <path d="M46 130 L154 117 L262 110 L370 110 L478 111 L586 118 L694 123 L802 131 L910 139 L1018 143" stroke-width="10.2" opacity="0.96"/>
    <path d="M38 136 L162 128 L285 128 L408 130 L531 132 L655 141 L778 145 L901 155 L1024 165 L1147 163" stroke-width="8.9" opacity="0.89" stroke-dasharray="151 11 266 43 250 36 49 18 155 10 167 40"/>
    <path d="M50 141 L161 136 L271 132 L382 133 L493 136 L604 147 L715 156 L825 164 L936 176 L1047 183" stroke-width="3.9" opacity="0.86"/>
    <path d="M27 145 L141 140 L256 141 L371 135 L486 142 L600 156 L715 165 L830 175 L944 188 L1059 190" stroke-width="10.2" opacity="0.89"/>
    <path d="M55 140 L168 129 L281 124 L394 125 L507 132 L620 134 L734 145 L847 149 L960 158 L1073 158" stroke-width="9.4" opacity="0.90" stroke-dasharray="296 13 271 51 114 9 310 15 240 20 155 22"/>
    <path d="M64 142 L181 134 L298 133 L415 131 L532 135 L648 147 L765 162 L882 176 L999 185 L1116 186" stroke-width="10.3" opacity="0.86" stroke-dasharray="107 33 302 6 215 39 262 56 234 52 230 20"/>
    <path d="M56 152 L162 144 L269 139 L375 136 L481 145 L588 158 L694 163 L800 168 L907 177 L1013 179" stroke-width="8.2" opacity="0.92"/>
    <path d="M16 156 L140 150 L263 143 L387 143 L510 152 L634 159 L757 165 L880 178 L1004 187 L1127 191" stroke-width="5.5" opacity="0.93"/>
    <path d="M26 147 L142 143 L258 137 L374 136 L489 137 L605 145 L721 158 L837 166 L952 173 L1068 174" stroke-width="8.8" opacity="0.86"/>
    <path d="M62 152 L180 139 L298 130 L416 125 L533 126 L651 139 L769 147 L887 161 L1005 165 L1122 172" stroke-width="11.5" opacity="0.84"/>
    <path d="M54 157 L175 153 L296 145 L417 149 L538 150 L659 160 L780 174 L901 179 L1021 192 L1142 190" stroke-width="4.6" opacity="0.92"/>
    <path d="M66 162 L171 151 L277 145 L382 146 L487 145 L593 152 L698 161 L803 169 L908 180 L1014 182" stroke-width="7.7" opacity="0.99"/>
    <path d="M43 166 L159 157 L276 155 L392 151 L509 156 L626 161 L742 168 L859 174 L975 178 L1092 178" stroke-width="4.2" opacity="0.99"/>
    <path d="M23 163 L152 149 L281 146 L411 146 L540 152 L669 161 L798 165 L927 170 L1057 177 L1186 179" stroke-width="6.2" opacity="0.94"/>
    <path d="M33 166 L157 160 L281 149 L406 150 L530 158 L654 166 L778 178 L902 186 L1026 191 L1150 199" stroke-width="9.6" opacity="0.81"/>
    <path d="M19 169 L129 159 L239 153 L349 157 L459 156 L570 163 L680 167 L790 179 L900 186 L1010 191" stroke-width="4.5" opacity="0.87"/>
    <path d="M70 171 L184 168 L298 163 L412 164 L527 165 L641 177 L755 187 L869 203 L983 210 L1097 220" stroke-width="5.0" opacity="0.98"/>
    <path d="M23 176 L152 169 L281 166 L411 161 L540 167 L669 174 L799 179 L928 188 L1057 200 L1186 206" stroke-width="9.5" opacity="0.80"/>
    <path d="M72 179 L192 173 L312 170 L432 173 L552 181 L672 184 L792 191 L912 195 L1033 200 L1153 207" stroke-width="6.3" opacity="0.92"/>
    <path d="M45 180 L165 175 L285 175 L405 179 L525 187 L645 194 L765 209 L885 217 L1005 223 L1125 223" stroke-width="5.4" opacity="0.94"/>
    <path d="M26 176 L145 169 L265 159 L385 153 L504 156 L624 161 L744 173 L863 178 L983 181 L1103 188" stroke-width="8.7" opacity="0.99"/>
    <path d="M28 180 L150 174 L272 164 L394 164 L516 173 L638 181 L760 189 L882 195 L1004 199 L1126 202" stroke-width="6.5" opacity="0.91" stroke-dasharray="219 31 42 12 188 20 162 44 241 44 285 38"/>
    <path d="M74 177 L186 171 L298 161 L410 158 L522 160 L633 171 L745 177 L857 186 L969 193 L1081 192" stroke-width="8.1" opacity="0.84" stroke-dasharray="136 37 217 21 261 29 296 32 161 50 117 59"/>
    <path d="M81 189 L182 177 L283 169 L384 166 L485 171 L586 173 L687 187 L788 201 L890 206 L991 207" stroke-width="9.2" opacity="0.89"/>
    <path d="M44 191 L155 180 L266 174 L376 173 L487 172 L598 175 L709 183 L820 195 L931 203 L1041 204" stroke-width="8.2" opacity="0.97"/>
    <path d="M44 185 L165 179 L286 176 L406 179 L527 181 L648 194 L769 198 L890 203 L1011 211 L1131 212" stroke-width="3.7" opacity="0.90"/>
    <path d="M51 193 L162 183 L273 173 L384 176 L495 177 L606 184 L718 193 L829 205 L940 214 L1051 221" stroke-width="9.9" opacity="0.93" stroke-dasharray="237 58 238 7 194 58 231 51 61 54 259 35"/>
    <path d="M41 192 L143 180 L245 172 L347 173 L449 172 L551 179 L653 193 L756 208 L858 220 L960 225" stroke-width="5.7" opacity="0.89"/>
    <path d="M56 191 L157 181 L258 174 L360 169 L461 177 L562 189 L663 205 L765 212 L866 221 L967 225" stroke-width="6.3" opacity="0.92"/>
    <path d="M49 194 L176 183 L302 178 L429 178 L555 183 L682 196 L808 207 L935 218 L1062 220 L1188 229" stroke-width="5.4" opacity="0.91" stroke-dasharray="151 24 128 56 89 22 270 59 55 18 296 56"/>
    <path d="M55 199 L181 192 L307 185 L433 183 L559 187 L686 192 L812 206 L938 215 L1064 227 L1190 231" stroke-width="4.8" opacity="0.94"/>
    <path d="M53 207 L152 199 L251 200 L351 201 L450 205 L549 217 L648 229 L748 240 L847 249 L946 251" stroke-width="4.5" opacity="0.95"/>
    <path d="M85 202 L190 199 L295 197 L400 195 L506 200 L611 210 L716 222 L821 232 L926 245 L1032 245" stroke-width="3.5" opacity="0.84"/>
    <path d="M69 210 L169 200 L268 199 L368 196 L468 204 L567 211 L667 220 L767 227 L866 239 L966 245" stroke-width="8.7" opacity="0.84"/>
    <path d="M67 208 L168 199 L269 192 L371 191 L472 199 L573 205 L675 214 L776 223 L877 236 L979 238" stroke-width="9.0" opacity="0.87" stroke-dasharray="114 58 314 30 320 35 307 50 119 34 99 57"/>
    <path d="M58 210 L167 205 L276 201 L385 200 L495 205 L604 219 L713 224 L822 234 L932 239 L1041 245" stroke-width="7.8" opacity="0.87"/>
    <path d="M43 214 L158 211 L273 211 L387 208 L502 210 L617 223 L732 238 L846 243 L961 247 L1076 250" stroke-width="7.9" opacity="0.88"/>
    <path d="M45 215 L163 206 L281 206 L398 205 L516 206 L634 209 L751 218 L869 231 L987 235 L1104 245" stroke-width="6.0" opacity="0.83"/>
    <path d="M111 223 L202 214 L293 215 L384 211 L475 211 L566 221 L657 232 L748 237 L839 245 L930 246" stroke-width="4.8" opacity="0.99"/>
    <path d="M52 225 L153 214 L255 208 L356 203 L457 212 L558 222 L659 227 L760 240 L861 253 L962 257" stroke-width="7.0" opacity="0.91"/>
    <path d="M44 217 L161 215 L279 208 L396 209 L513 207 L630 216 L748 223 L865 238 L982 248 L1100 254" stroke-width="3.8" opacity="0.84"/>
    <path d="M79 221 L168 210 L258 206 L347 211 L437 215 L526 220 L616 235 L705 239 L794 249 L884 257" stroke-width="3.1" opacity="0.85"/>
    <path d="M119 221 L208 208 L296 203 L385 206 L473 211 L562 216 L650 225 L739 233 L827 246 L915 249" stroke-width="4.3" opacity="0.92" stroke-dasharray="60 9 66 41 185 49 248 42 85 51 279 46"/>
    <path d="M117 223 L206 221 L296 219 L385 219 L474 223 L563 229 L652 237 L741 246 L831 257 L920 257" stroke-width="2.9" opacity="0.96" stroke-dasharray="233 46 231 50 312 60 186 28 310 48 143 34"/>
    <path d="M73 234 L184 223 L295 221 L406 220 L518 225 L629 228 L740 236 L852 248 L963 251 L1074 252" stroke-width="6.8" opacity="0.96"/>
    <path d="M146 231 L243 221 L340 219 L437 223 L534 225 L631 229 L728 244 L826 250 L923 259 L1020 259" stroke-width="5.2" opacity="1.00"/>
    <path d="M160 231 L274 220 L388 210 L503 205 L617 209 L731 222 L845 231 L960 235 L1074 248 L1188 253" stroke-width="5.8" opacity="0.89" stroke-dasharray="73 29 45 31 60 45 246 17 173 20 50 12"/>
    <path d="M191 237 L278 234 L365 226 L451 230 L538 238 L624 250 L711 262 L798 271 L884 274 L971 283" stroke-width="7.0" opacity="0.94"/>
    <path d="M164 240 L263 229 L362 222 L461 226 L560 228 L659 237 L758 241 L857 251 L956 259 L1055 267" stroke-width="6.9" opacity="0.80" stroke-dasharray="121 23 271 56 73 24 183 15 50 17 307 43"/>
    <path d="M186 242 L271 230 L355 229 L440 223 L524 233 L609 242 L693 255 L777 267 L862 274 L946 279" stroke-width="6.2" opacity="0.98"/>
    <path d="M91 245 L184 237 L277 228 L370 224 L463 227 L555 235 L648 251 L741 260 L834 268 L927 267" stroke-width="2.9" opacity="0.99" stroke-dasharray="320 13 72 16 234 38 251 6 314 12 299 51"/>
    <path d="M137 248 L210 240 L284 239 L357 233 L431 239 L505 252 L578 263 L652 271 L725 281 L799 291" stroke-width="6.5" opacity="0.86" stroke-dasharray="309 19 104 52 231 10 61 7 316 52 237 6"/>
    <path d="M101 246 L182 243 L263 241 L343 246 L424 255 L505 267 L586 271 L667 280 L748 290 L829 292" stroke-width="2.9" opacity="0.98" stroke-dasharray="50 57 296 51 318 23 143 18 175 41 257 16"/>
    <path d="M153 255 L243 248 L332 244 L422 247 L512 255 L601 257 L691 266 L780 272 L870 279 L959 278" stroke-width="6.0" opacity="0.81"/>
    <path d="M183 249 L255 244 L327 236 L399 231 L471 232 L543 238 L615 246 L687 253 L759 265 L831 268" stroke-width="4.8" opacity="1.00" stroke-dasharray="185 7 268 37 244 30 210 47 127 10 237 23"/>
    <path d="M83 257 L178 250 L272 243 L366 244 L460 244 L554 247 L649 253 L743 266 L837 275 L931 278" stroke-width="6.1" opacity="0.89" stroke-dasharray="231 14 298 37 284 21 119 51 40 45 248 14"/>
    <path d="M149 257 L229 251 L310 252 L390 253 L471 261 L551 274 L632 285 L712 296 L793 309 L873 309" stroke-width="5.7" opacity="0.89"/>
    <path d="M141 260 L217 251 L292 252 L368 257 L443 262 L519 269 L594 275 L669 282 L745 294 L820 302" stroke-width="5.7" opacity="0.87"/>
    <path d="M113 266 L193 259 L272 255 L351 256 L430 262 L509 266 L588 281 L667 292 L746 300 L825 301" stroke-width="3.7" opacity="0.93" stroke-dasharray="279 60 265 9 146 29 63 30 129 34 162 41"/>
    <path d="M209 259 L279 246 L349 247 L419 245 L489 247 L559 251 L629 265 L700 270 L770 279 L840 279" stroke-width="5.8" opacity="0.99" stroke-dasharray="186 49 179 37 88 30 169 6 300 48 120 34"/>
    <path d="M272 260 L354 255 L436 248 L519 247 L601 245 L683 257 L766 265 L848 271 L930 273 L1013 280" stroke-width="5.3" opacity="0.98" stroke-dasharray="141 59 188 52 209 18 83 25 203 13 180 14"/>
    <path d="M218 270 L279 266 L339 262 L399 258 L459 263 L519 267 L579 275 L640 290 L700 294 L760 301" stroke-width="3.9" opacity="0.86" stroke-dasharray="319 58 151 55 72 56 227 28 84 8 69 32"/>
    <path d="M131 268 L226 261 L321 260 L416 254 L511 258 L606 263 L701 277 L796 292 L891 302 L987 309" stroke-width="6.5" opacity="0.89"/>
    <circle cx="143" cy="276" r="3.3" fill="#e8132b" stroke="none"/>
    <circle cx="56" cy="11" r="1.6" fill="#e8132b" stroke="none"/>
    <circle cx="1128" cy="24" r="2.7" fill="#e8132b" stroke="none"/>
    <circle cx="96" cy="28" r="3.6" fill="#e8132b" stroke="none"/>
    <circle cx="910" cy="44" r="4.6" fill="#e8132b" stroke="none"/>
    <circle cx="1012" cy="276" r="1.6" fill="#e8132b" stroke="none"/>
    <circle cx="521" cy="291" r="5.1" fill="#e8132b" stroke="none"/>
    <circle cx="1132" cy="306" r="4.5" fill="#e8132b" stroke="none"/>
    <circle cx="889" cy="304" r="3.8" fill="#e8132b" stroke="none"/>
    <circle cx="47" cy="42" r="1.7" fill="#e8132b" stroke="none"/>
    <circle cx="55" cy="25" r="2.6" fill="#e8132b" stroke="none"/>
    <circle cx="23" cy="12" r="4.2" fill="#e8132b" stroke="none"/>
    <circle cx="1038" cy="11" r="1.9" fill="#e8132b" stroke="none"/>
    <circle cx="1135" cy="30" r="2.8" fill="#e8132b" stroke="none"/>
    <circle cx="993" cy="288" r="1.9" fill="#e8132b" stroke="none"/>
    <circle cx="1056" cy="21" r="3.3" fill="#e8132b" stroke="none"/>
    <circle cx="197" cy="303" r="4.8" fill="#e8132b" stroke="none"/>
    <circle cx="1039" cy="290" r="3.0" fill="#e8132b" stroke="none"/>
    <circle cx="860" cy="290" r="4.4" fill="#e8132b" stroke="none"/>
    <circle cx="140" cy="30" r="3.5" fill="#e8132b" stroke="none"/>
    <circle cx="110" cy="23" r="3.8" fill="#e8132b" stroke="none"/>
    <circle cx="183" cy="311" r="2.0" fill="#e8132b" stroke="none"/>
    <circle cx="155" cy="312" r="5.0" fill="#e8132b" stroke="none"/>
    <circle cx="1104" cy="45" r="2.3" fill="#e8132b" stroke="none"/>
    <circle cx="656" cy="289" r="2.5" fill="#e8132b" stroke="none"/>
    <circle cx="149" cy="298" r="5.1" fill="#e8132b" stroke="none"/>
    <circle cx="922" cy="308" r="3.8" fill="#e8132b" stroke="none"/>
    <circle cx="748" cy="299" r="2.6" fill="#e8132b" stroke="none"/>
    <circle cx="949" cy="283" r="2.7" fill="#e8132b" stroke="none"/>
    <circle cx="1059" cy="275" r="2.9" fill="#e8132b" stroke="none"/>
    <circle cx="1000" cy="285" r="2.1" fill="#e8132b" stroke="none"/>
    <circle cx="112" cy="26" r="1.7" fill="#e8132b" stroke="none"/>
    <circle cx="1041" cy="23" r="4.0" fill="#e8132b" stroke="none"/>
    <circle cx="149" cy="279" r="4.5" fill="#e8132b" stroke="none"/>
  </g>
</svg>
